# xmcd
#
# Track frame offsets:
#	150
#	11725
#	26812
#	44088
#	57992
#	76240
#	93285
#	107052
#	119888
#	133334
#	149305
#
# Disc length: 2177 seconds
#
# Revision: 1
# Processed by: cddbd v1.5.2PL0 Copyright (c) Steve Scherf et al.
# Submitted via: audiograbber 1.83.01
#
DISCID=a2087f0b
DTITLE=Highway 101 - Big Bang Boom
DYEAR=1991
DGENRE=Country
TTITLE0=Big Bang Boom
TTITLE1=Wherever You Are
TTITLE2=The Blame
TTITLE3=Storm of Love
TTITLE4=Till I Get It Right
TTITLE5=Restless Kind
TTITLE6=Honky Tonk Baby
TTITLE7=River of Tears
TTITLE8=Baby, I'm Missing You
TTITLE9=Desperate
TTITLE10=Big City Bound
EXTD=
EXTT0=
EXTT1=
EXTT2=
EXTT3=
EXTT4=
EXTT5=
EXTT6=
EXTT7=
EXTT8=
EXTT9=
EXTT10=
PLAYORDER=
